inDegrees=no
num_controls=7
num_derivatives=13
num_iterations=111
num_multipliers=7
num_parameters=0
num_slacks=7
num_states=26
objective=5.714031
objective_accelerations=0.840318
objective_balance=0.054721
objective_effort=0.347663
objective_height=4.356010
objective_ligament=0.115319
solver_duration=1246.222265
status=Solve_Succeeded
success=true
DataType=double
version=3
OpenSimVersion=4.4-2022-07-23-0e9fedc
endheader
time	/jointset/ground_pelvis/pelvis_tilt/value	/jointset/ground_pelvis/pelvis_tx/value	/jointset/ground_pelvis/pelvis_ty/value	/jointset/hip_l/hip_flexion_l/value	/jointset/hip_l/hip_adduction_l/value	/jointset/hip_l/hip_rotation_l/value	/jointset/back/lumbar_extension/value	/jointset/patellofemoral_l/patellar_flexion_l/value	/jointset/knee_l/knee_flexion_l/value	/jointset/knee_l/knee_adduction_l/value	/jointset/knee_l/knee_rotation_l/value	/jointset/ankle_l/ankle_angle_l/value	/jointset/subtalar_l/subtalar_angle_l/value	/jointset/ground_pelvis/pelvis_tilt/speed	/jointset/ground_pelvis/pelvis_tx/speed	/jointset/ground_pelvis/pelvis_ty/speed	/jointset/hip_l/hip_flexion_l/speed	/jointset/hip_l/hip_adduction_l/speed	/jointset/hip_l/hip_rotation_l/speed	/jointset/back/lumbar_extension/speed	/jointset/patellofemoral_l/patellar_flexion_l/speed	/jointset/knee_l/knee_flexion_l/speed	/jointset/knee_l/knee_adduction_l/speed	/jointset/knee_l/knee_rotation_l/speed	/jointset/ankle_l/ankle_angle_l/speed	/jointset/subtalar_l/subtalar_angle_l/speed	/forceset/tau_hip_flexion_l	/forceset/tau_hip_adduction_l	/forceset/tau_hip_rotation_l	/forceset/tau_knee_flexion_l	/forceset/tau_ankle_angle_l	/forceset/tau_subtalar_angle_l	/forceset/tau_lumbar_extension	lambda_cid13_p0	lambda_cid13_p1	lambda_cid13_p2	lambda_cid13_p3	lambda_cid13_p4	lambda_cid13_p5	lambda_cid14_p0	/jointset/ground_pelvis/pelvis_tilt/accel	/jointset/ground_pelvis/pelvis_tx/accel	/jointset/ground_pelvis/pelvis_ty/accel	/jointset/hip_l/hip_flexion_l/accel	/jointset/hip_l/hip_adduction_l/accel	/jointset/hip_l/hip_rotation_l/accel	/jointset/back/lumbar_extension/accel	/jointset/patellofemoral_l/patellar_flexion_l/accel	/jointset/knee_l/knee_flexion_l/accel	/jointset/knee_l/knee_adduction_l/accel	/jointset/knee_l/knee_rotation_l/accel	/jointset/ankle_l/ankle_angle_l/accel	/jointset/subtalar_l/subtalar_angle_l/accel	gamma_cid13_p0	gamma_cid13_p1	gamma_cid13_p2	gamma_cid13_p3	gamma_cid13_p4	gamma_cid13_p5	gamma_cid14_p0
0	-0.03954309908734611	0.06892160141296122	0.895951500274113	0.1955292361009247	-0.3219997796837065	-0.4835385920587767	-0.137903700187828	0.07015350928393024	0.07015350928391206	-0.1745327221581974	-0.1179976944129513	-0.06701017130107029	0.003828936190564663	0	0	0	0	0	0	0	0	0	0	0	0	0	0.1096155228705305	-0.07666197478509794	-0.02754087628778281	-0.2125634931362045	0.1509854002673769	-0.02737836857967404	-0.05837925796484454	12.04002146723131	5.637227913915947	3.500029317792034	21.129201910735	-512.9476308269544	-70.80231422250947	-39.9187645404253	-5.918000989056141	-2.674876300987005	-1.137440660521483	15.13759702198604	-2.07391883864309	3.281053438349604	-3.102719752252831	10.09854426219519	10.09854426219357	0.6566140409477295	-1.018832788195571	1.062899703917385	-1.700696441766849	-1.615771987079195e-09	6.721347802314921e-08	1.062743918493191e-07	-1.648154836757081e-08	4.030990202216255e-08	-2.51479021103858e-09	-9.178054982095737e-09
0.01	-0.03982725883157955	0.068789645149229	0.8958962207780412	0.1962629539956556	-0.3221017363492666	-0.4833735969147809	-0.1380654777748101	0.07064324514062539	0.07064324514165717	-0.1745034101291005	-0.1180419001172201	-0.06696125556107679	0.003743462147104553	-0.05660012356272062	-0.02626099135962585	-0.01101861703887061	0.1460853791020457	-0.02025984067003416	0.03292997835045438	-0.03205147454244451	0.09743999378962315	0.09743999378961958	0.005885102447132797	-0.008695759006911795	0.009728322280471506	-0.01698175328236825	0.1053767662441172	-0.08114219413947521	-0.0268310368642531	-0.2084482738876284	0.14347667067328	-0.01996252555108433	-0.05460602545663537	9.889589531577439	2.938619542116541	3.763988248795255	21.04794015900197	-513.8767248597568	-76.49623172341518	-39.92896326990108	-5.496253029157189	-2.582174642337026	-1.078471837472555	14.2452703664729	-1.982310782230879	3.288597620471793	-3.210754876797708	9.490652111355177	9.490652111355473	0.5578842896898193	-0.7731261878539685	0.9195788044017716	-1.679979859200455	-4.216573636507463e-08	1.416240443536734e-07	1.735865677017132e-07	3.02175205621314e-08	-2.181840059486401e-07	-2.621014969353748e-08	-9.935014080289029e-09
0.02	-0.04067046680935785	0.06839898615411912	0.8957318751892028	0.1984377780839235	-0.3224023502417334	-0.4828813764699739	-0.1385386488215239	0.07209216597198376	0.07209216597199142	-0.1744145618853363	-0.1181686991543799	-0.06681670053543327	0.003491557553274808	-0.1118096466969672	-0.05174054627553696	-0.02181321855335022	0.2882212386900234	-0.03973144538200189	0.06544506018429096	-0.06227869194712886	0.1918369945396773	0.1918369945397076	0.01190724261804102	-0.01651866725062548	0.01912785713254031	-0.03328611007387719	0.101138009620396	-0.08562241349383574	-0.02612119745838084	-0.2043330546340295	0.1359679410804328	-0.01254668252159786	-0.05083279294737917	7.802838797696723	0.2283490544220437	4.03039186408727	20.86934507543319	-513.835819231868	-82.0306202706016	-39.9588002111609	-5.639880903361224	-2.518589012244277	-1.09263755564335	14.34769311917229	-1.916271647030483	3.198074135026042	-2.737868324700673	9.489945654281479	9.489945654287357	0.6840215857013583	-0.8442626355560563	0.9971422182364417	-1.565217143595917	-8.271570074307006e-08	2.160346106841975e-07	2.408987435541073e-07	7.691658949183362e-08	-4.766779139194428e-07	-4.990550917603638e-08	-1.069197317848232e-08
0.03	-0.04205925758239702	0.06775747468997938	0.8954602854828564	0.202015520993701	-0.3228940469213129	-0.4820671231698052	-0.1393047825794127	0.07447157758452065	0.07447157758426436	-0.1742650541707823	-0.1183709415104427	-0.06657912062972723	0.003080040097074601	-0.1656775780252187	-0.07642413374364761	-0.03249811279673828	0.4266607383610579	-0.05851076449809955	0.09724459613575455	-0.09071107955485121	0.2836399092472933	0.2836399092472948	0.01795265847620684	-0.02390451130833282	0.02837488317268577	-0.04891807596163594	0.09672241189696171	-0.08094991141680519	-0.02556907299814993	-0.2012214133190841	0.1346475342036543	-0.01399748447018337	-0.04707809446376991	7.401682320750731	0.8372877007879678	4.037692966577533	20.36221851773622	-513.3106172711938	-79.77605628699526	-40.00689005963664	-5.219620716082213	-2.422586121576228	-1.055520250874893	13.49206904298094	-1.844234545316767	3.146712424495754	-2.860376966892447	8.964653722094209	8.964653722087487	0.5586146370150572	-0.6819238537905419	0.8864995457861335	-1.547352060503232	-1.0587405779459e-07	2.136883861666866e-07	2.926736610812839e-07	9.550378046791389e-08	-6.42450484967357e-07	-7.893709442378011e-08	-1.637253772685019e-08
0.04	-0.04397860196242489	0.06687325884966246	0.8950820258556388	0.206957657030455	-0.3235706312923248	-0.4809397106901778	-0.1403481308110078	0.07775685621212269	0.07775685621212747	-0.1740563296874469	-0.1186462780207336	-0.0662494671138382	0.002515169832169077	-0.2179203680941902	-0.1002814215109753	-0.04314720272756749	0.5610998641087785	-0.07670898367089005	0.1280768960587145	-0.1177215866858949	0.3730103976785911	0.3730103976785623	0.02375059637993337	-0.03113749788246785	0.03754257916811794	-0.06395667181492228	0.09230681417164613	-0.07627740933983669	-0.02501694853262822	-0.1981097720063027	0.1333271273262212	-0.01544828641925003	-0.04332339598108705	7.058445876575858	1.436745660487074	4.045751268902849	19.76427381311739	-511.9150513252945	-77.37118583402476	-40.07179731190917	-5.314852651505007	-2.353329072087968	-1.085476693131602	13.54761833450952	-1.800051658369247	3.004626929325309	-2.453492229364867	9.003460399017932	9.003460399023501	0.6345259948130404	-0.8136911388416996	0.9812762092934353	-1.446543136701852	-1.286738250043269e-07	2.097595474048863e-07	3.441282227667033e-07	1.13511345094435e-07	-8.063112758725313e-07	-1.080787049450341e-07	-2.215461991336599e-08
0.05	-0.04641313488638315	0.06575463044610452	0.8945971635424904	0.2132255496565325	-0.3244259629662536	-0.4795087135061695	-0.1416527738074865	0.08192401917652205	0.08192401917678377	-0.1737902018398862	-0.1189931639106941	-0.0658283734065957	0.001803321258449064	-0.268706548074699	-0.123299015913184	-0.0538354258417254	0.6917810583732922	-0.09422802354981233	0.1579995106305028	-0.1428997956342931	0.4599542888081913	0.4599542888079339	0.02945579188783112	-0.03815027819064214	0.0466440581270612	-0.07828995768480673	0.08642094961498224	-0.07321556267685692	-0.02417753122044306	-0.1937302016489389	0.1290202948447461	-0.0142794375445414	-0.03848934834705081	5.85189433020899	1.098632293258607	4.147333575497355	19.51539936256158	-510.5838893415312	-76.98693562018794	-40.15173693718756	-4.918559159884736	-2.254165284186287	-1.062182597946861	12.72370804506726	-1.708474569032798	2.967576111236902	-2.503902680717152	8.46967198649287	8.469671986455829	0.5357078034834104	-0.6316155045736125	0.8697696250615478	-1.408330263884163	-1.46280070296634e-07	2.298166167389938e-07	3.729823158284084e-07	1.341032124615515e-07	-9.130236382899284e-07	-1.240751350963621e-07	-2.277669712589447e-08
